<svg width="299.71164413249994" height="64.8" viewBox="0 0 299.71164413249994 64.8" class="css-1j8o68f"><defs id="SvgjsDefs3750"></defs><g id="SvgjsG3751" featurekey="nameLeftFeature-0" transform="matrix(2.6093575871392174,0,0,2.6093575871392174,-1.989431851597167,-1.4959954178837727)" fill="#76c047"><path d="M12.508 14.5424 c0.16949 0 0.23746 0.067631 0.23746 0.23712 l0 3.0678 l-0.016949 0 c0 0.067797 -0.050847 0.16949 -0.13559 0.25424 c-1.2544 1.2542 -2.8814 2.0168 -4.8983 2.0168 c-3.8136 0 -6.9322 -3.0168 -6.9322 -6.8812 c0 -3.8475 3.1186 -6.9153 6.9322 -6.9153 c1.9322 0 3.661 0.74576 4.9322 2.0169 c0.15254 0.15254 0.16949 0.27119 0.067797 0.35593 l-0.71186 0.59322 c-0.11864 0.10169 -0.22034 0.10169 -0.33898 -0.016949 c-0.71186 -0.74559 -2.1186 -1.6608 -3.8475 -1.6608 c-3.678 0 -5.7119 2.9831 -5.7119 5.6271 c0 2.678 2.0339 5.5932 5.7119 5.5932 c1.5932 0 2.8475 -0.74576 3.61 -1.4407 l0 -1.5763 l-3.5763 0 c-0.15254 0 -0.22034 -0.067797 -0.22034 -0.20339 l0 -0.83051 c0 -0.16949 0.067797 -0.23729 0.22034 -0.23729 l4.678 0 z M25.864372881355933 6.441000000000001 c0.08458 0 0.15188 0.10169 0.084083 0.20339 l-5.4064 7.7458 l0 5.3729 c0 0.15254 -0.067797 0.23712 -0.20339 0.23712 l-0.67797 0 c-0.28814 0 -0.44068 -0.18644 -0.44068 -0.47441 l0 -5.1356 l-5.4068 -7.7458 c-0.050847 -0.10169 0 -0.20339 0.10186 -0.20339 l1.1864 0 c0.10169 0 0.15254 0.067797 0.20339 0.16949 l4.5763 6.4746 l4.5764 -6.4746 c0.067797 -0.10169 0.10169 -0.16949 0.20339 -0.16949 l1.2034 0 z M42.88128813559322 6.441000000000001 c0.11864 0 0.20339 0.10186 0.20339 0.23746 l0 13.085 c0 0.15254 -0.084746 0.23712 -0.22034 0.23712 l-0.88136 0 c-0.16949 0 -0.23729 -0.08458 -0.23729 -0.23712 l0 -10.61 l-6.1697 10.407 c-0.067797 0.11864 -0.13559 0.16949 -0.25424 0.16949 l-0.067797 0 c-0.10169 0 -0.18644 -0.050847 -0.25424 -0.16949 l-6.1525 -10.407 l0 10.61 c0 0.15254 -0.084746 0.23712 -0.22034 0.23712 l-0.88136 0 c-0.15254 0 -0.23729 -0.08458 -0.23729 -0.23712 l0 -13.102 c0 -0.11881 0.067797 -0.22051 0.20339 -0.22051 l0.81356 0 c0.11864 0 0.18644 0.050847 0.25424 0.15271 l6.5086 10.983 l6.5254 -10.983 c0.050847 -0.10186 0.11864 -0.15271 0.27119 -0.15271 l0.79661 0 z"></path></g><g id="SvgjsG3752" featurekey="inlineSymbolFeature-0" transform="matrix(0.9003250341830213,0,0,0.9003250341830213,125.4983748290849,-12.616248274683619)" fill="#76c047"><path xmlns="http://www.w3.org/2000/svg" d="M94.33,31.172c0.434-0.51,0.806-0.95,0.621-1.413c-0.103-0.257-0.296-0.405-0.598-0.442  c-0.009-0.043-0.021-0.104-0.034-0.189c-0.123-0.809-0.271-1.807-1.332-1.699c-0.189,0.021-0.333,0.089-0.443,0.182  c-0.193-0.171-0.465-0.233-0.801-0.185c-1.154,0.159-1.866,0.749-2.117,1.753c-0.049,0.196-0.286,0.415-0.538,0.646  c-0.415,0.381-0.933,0.855-1.027,1.618c-0.054,0.433-0.255,0.795-0.467,1.18c-0.23,0.417-0.468,0.849-0.508,1.371  c-0.051,0.668-0.531,1.653-1.252,2.57c-0.314,0.401-0.595,0.971-0.893,1.573c-0.385,0.78-0.82,1.664-1.247,1.939  c-0.385,0.246-0.626,0.438-0.803,0.58c-0.07,0.056-0.12,0.094-0.155,0.12c-0.062-0.159-0.136-0.414-0.197-0.631  c-0.09-0.313-0.197-0.685-0.343-1.101c-0.401-1.146-1.201-1.998-1.63-2.455c-0.088-0.094-0.159-0.169-0.172-0.175  c-0.115-0.287-0.009-1.686,0.066-1.997c0.001-0.005,0-0.009,0.001-0.013c0.279-0.082,0.548-0.191,0.794-0.296  c0.192-0.081,0.376-0.16,0.544-0.21c0.441-0.129,0.666-0.45,0.784-0.781c0.061,0.021,0.121,0.04,0.179,0.055  c0.457,0.118,0.863,0.059,1.153-0.164c0.49-0.383,0.646-1.146,0.812-1.954l0.052-0.249c0.067-0.319,0.292-0.485,0.653-0.723  c0.176-0.116,0.358-0.235,0.497-0.395c0.239-0.274,0.497-0.907,0.665-1.373c0.424,0.052,0.931-0.027,1.286-0.453  c0.732-0.88-0.641-4.809-1.086-5.61c-0.553-0.994-1.756-1.834-2.721-2.51c-0.25-0.175-0.481-0.336-0.672-0.481  c-1.051-0.8-3.191-0.721-4.147-0.318c-0.852,0.359-2.643,1.618-4.051,3.026c-0.666,0.665-1.1,1.396-1.384,2.004  c-0.062-0.1-0.114-0.198-0.189-0.297c-0.522-0.683-1.103-1.049-1.524-1.315c-0.156-0.099-0.368-0.232-0.397-0.261  c-0.169-0.592-1.535-2.612-2.131-3.059c-0.505-0.378-3.012-2.37-4.052-3.279c-0.333-0.291-0.558-0.562-0.756-0.802  c-0.403-0.486-0.784-0.946-1.658-0.946c-0.551,0-1.113,0.152-1.826,0.346c-0.673,0.182-1.51,0.408-2.59,0.567  c-2.245,0.33-4.511,0.933-6.216,1.654c-0.529,0.224-0.983,0.453-1.389,0.659c-0.841,0.427-1.399,0.707-1.942,0.605  c-0.67-0.125-1.36-0.024-2.027,0.072c-0.463,0.067-0.903,0.135-1.271,0.106c-0.312-0.021-0.524-0.038-0.681-0.052  c-0.34-0.028-0.468-0.039-0.751-0.003c-0.346,0.045-0.595,0.096-0.826,0.144c-0.249,0.051-0.473,0.098-0.799,0.122  c-0.689,0.053-1.268,0.45-1.429,0.571c-0.313,0.235-0.449,0.455-0.558,0.632c-0.091,0.146-0.157,0.252-0.34,0.4  c-0.205,0.166-0.319,0.36-0.34,0.575c-0.031,0.327,0.161,0.554,0.288,0.705c0.04,0.048,0.107,0.127,0.108,0.172  c-0.046,0.116-0.085,0.196-0.114,0.258c-0.196,0.409-0.156,0.565-0.004,1.146l0.082,0.317c0.13,0.511,0.331,0.79,0.569,0.94  c-0.015,0.141,0.017,0.316,0.147,0.524c0.274,0.437,0.262,0.573,0.254,0.663c-0.011,0.129-0.032,0.371,0.173,0.634  c0.608,0.779,1.831,0.225,2.641-0.143c0.358-0.162,0.752-0.514,1.209-0.92c0.275-0.245,0.635-0.564,0.969-0.786  c-0.08,0.125-0.162,0.255-0.239,0.387c-0.462,0.794-0.63,1.179-0.423,1.801c0.095,0.286,0.335,0.501,0.658,0.591  c0.489,0.135,1.102-0.017,1.521-0.376c0.715-0.612,0.907-1.207,1.076-1.732c0.099-0.308,0.192-0.598,0.389-0.916l0.144-0.236  c0.434-0.714,0.882-1.453,1.532-1.686c0.697-0.249,2.173-0.634,4.151-1.084c1.32-0.3,6.048-0.254,7.041-0.183  c0.524,0.038,0.57,0.131,0.837,0.996c0.2,0.652,0.906,1.576,1.587,2.471c0.307,0.401,0.6,0.784,0.809,1.098  c0.009,0.014,0.019,0.033,0.027,0.047c-0.122,0.02-0.239,0.078-0.323,0.184c-0.498,0.617-2.012,2.307-3.02,2.69  c-1.181,0.45-1.503,0.682-2.7,1.545l-0.914,0.655c-1.044,0.74-1.86,1.358-2.766,2.044c-0.84,0.636-1.757,1.33-3.006,2.234  c-1.438,1.043-2.204,1.728-2.711,2.18c-0.411,0.366-0.658,0.587-0.986,0.764c-0.391,0.211-0.767,0.257-1.388,0.332  c-0.503,0.062-1.129,0.138-1.98,0.332c-2.046,0.469-2.333,0.692-3.35,1.67l-0.276,0.265c-1.529,1.452-1.999,3.22-2.342,4.511  c-0.061,0.231-0.119,0.449-0.179,0.649c-0.272,0.908-0.891,1.463-1.388,1.909c-0.133,0.119-0.255,0.229-0.361,0.335  c-0.477,0.477-1.799,1.422-3.186,2.18c-1.356,0.739-2.6,2.068-3.699,3.951c-0.872,1.494-2.06,2.662-3.633,3.57  c-0.87,0.501-1.702,0.86-2.583,1.24c-0.78,0.336-1.587,0.683-2.456,1.148c-1.983,1.062-2.982,2.127-3.873,3.398  c-0.484,0.691-1.083,1.264-1.776,1.924c-0.546,0.521-1.111,1.062-1.689,1.727c-1.229,1.413-2.958,2.965-4.302,3.86  c-0.693,0.462-0.741,0.458-1.072,0.439c-0.278-0.018-0.699-0.044-1.494,0.061c-1.194,0.16-1.886,0.413-2.177,0.797  c-0.068,0.09-0.107,0.178-0.129,0.254c-0.203,0.387-0.881,1.905-0.26,3.954c0.363,1.2,0.082,1.856-0.191,2.491  C5.178,78.797,5,79.211,5,79.708c0,0.942,0.081,2.175,0.708,3.354c0.133,0.249,0.243,0.502,0.349,0.745  c0.324,0.744,0.659,1.513,1.477,1.827c0.125,0.048,0.946,0.353,1.664,0.353c0.293,0,0.569-0.051,0.773-0.19  c0.217-0.149,0.341-0.385,0.341-0.646c0-0.354-0.129-0.547-0.214-0.675c-0.074-0.11-0.175-0.261-0.175-0.944  c0-1.254,0.288-2.008,0.978-3.322c0.292-0.558,0.468-1.083,0.639-1.592c0.255-0.76,0.496-1.477,1.111-2.2  c1.059-1.246,3.16-3.226,4.281-3.911l0.796-0.482c1.428-0.861,3.816-2.305,5.004-3.169c0.565-0.41,1.181-0.82,1.815-1.244  c0.974-0.649,1.981-1.32,2.931-2.072c1.33-1.052,2.394-1.639,3.35-1.843c0.995-0.214,1.906-0.634,2.5-1.154l0.235-0.212  c0.311-0.288,0.467-0.433,1.337-0.723c0.94-0.313,1.948-0.898,3.224-1.641c0.393-0.228,0.815-0.473,1.273-0.732  c1.306-0.74,2.275-1.436,3.129-2.05c0.42-0.302,0.804-0.578,1.172-0.816c0.475-0.308,1.235-0.853,1.967-1.377  c0.554-0.397,1.269-0.91,1.645-1.155c0.055,0.059,0.118,0.128,0.19,0.206c0.487,0.527,1.301,1.41,2.425,2.188  c0.661,0.458,1.17,0.889,1.663,1.306c0.746,0.631,1.392,1.176,2.305,1.591c0.684,0.311,1.342,0.674,1.83,0.959  c-0.104,0.035-0.201,0.053-0.308,0.093c-1.553,0.582-3.219,1.288-4.556,1.855c-0.915,0.389-1.703,0.723-2.249,0.931  c-2.019,0.769-5.415,1.91-5.97,1.91c-0.219,0-0.514-0.035-0.839-0.071c-0.91-0.102-1.941-0.216-2.583,0.135l-0.268,0.143  c-1.362,0.722-2.482,1.39-2.397,2.242c0.013,0.13,0.005,0.256,0,0.385c-0.023,0.518-0.054,1.227,0.773,2.172  c0.363,0.415,0.785,0.775,1.193,1.125c0.556,0.475,1.131,0.967,1.217,1.363c0.046,0.216,0.11,0.561,0.188,0.969  c0.332,1.77,0.654,3.409,0.957,4.014c0.347,0.695,1.215,1.463,2.654,2.348c0.303,0.187,0.577,0.263,0.822,0.263  c0.796,0,1.291-0.793,1.509-1.143c0.37-0.591,0.106-1.261-0.174-1.971c-0.096-0.243-0.2-0.506-0.289-0.79  c-0.093-0.299-0.191-0.519-0.278-0.714c-0.202-0.45-0.303-0.678-0.096-1.755c0.202-1.053,0.235-2.11,0.256-2.811  c0.01-0.315,0.021-0.672,0.034-0.735c0.021-0.051,0.038-0.096,0.055-0.165c0.029-0.027,0.188-0.135,0.973-0.359  c1.384-0.395,3.383-0.821,4.198-0.821c0.155,0,0.375,0.004,0.646,0.008c1.338,0.026,3.828,0.066,5.589-0.209  c1.962-0.307,4.345-0.921,6.373-1.644c0.518-0.185,0.96-0.326,1.347-0.449c1.014-0.325,1.684-0.54,2.315-1.066  c0.953-0.794,1.644-1.562,1.143-3.568c-0.479-1.916-2.108-5.077-2.902-6.48c-0.79-1.396-2.384-3.262-3.79-4.907l-0.413-0.484  c-0.547-0.642-0.986-1.203-1.358-1.677c-0.68-0.868-1.13-1.441-1.62-1.735c-0.402-0.242-0.619-0.6-0.691-0.769  c0.248-0.253,1.063-0.789,2.229-1.069c0.96-0.23,2.837-0.934,4.493-1.555c1.21-0.453,2.354-0.882,2.915-1.042  c0.349-0.1,0.767-0.204,1.216-0.315c1.366-0.34,2.915-0.726,3.89-1.29c0.644-0.372,1.185-0.745,1.661-1.075  c0.283-0.194,0.539-0.365,0.788-0.522c0.38,0.885,1.441,3.263,2.279,4.213c0.844,0.956,1.855,2.754,2.236,3.432l0.1,0.176  c0.281,0.492,1.913,2.011,2.848,2.011h0.118c0.041,0.001,0.083,0.001,0.127,0.001c0.632,0,1.397-0.058,2.171-1.042  c0.485-0.617,1.031-1.415,1.56-2.187c0.266-0.387,0.531-0.773,0.788-1.138c0.662-0.938,1.387-2.828,1.916-4.209  c0.128-0.331,0.243-0.634,0.345-0.887c0.393-0.981,0.949-2.188,1.778-2.826l0.221-0.17c0.797-0.609,1.699-1.301,2.275-2.068  c0.56-0.747,1.072-2.167,0.978-2.715v-0.001C94.178,31.352,94.265,31.249,94.33,31.172z M87.084,27.199  c-0.142,0.17-0.532,0.061-0.624,0.022c-0.135-0.056-0.286-0.054-0.418,0.007s-0.232,0.174-0.276,0.312  c-0.188,0.583-0.48,1.311-0.615,1.465c-0.046,0.053-0.174,0.137-0.286,0.211c-0.373,0.244-0.938,0.615-1.099,1.375l-0.052,0.254  c-0.104,0.506-0.246,1.197-0.427,1.339c-0.108,0.054-0.491-0.061-0.564-0.126c-0.096-0.222-0.356-0.396-0.598-0.353  c-0.277,0.049-0.427,0.256-0.445,0.616c-0.019,0.358-0.076,0.555-0.171,0.582c-0.204,0.061-0.426,0.152-0.657,0.25  c-0.525,0.223-1.069,0.454-1.447,0.254c-0.638-0.336-1.156-1.109-1.386-2.07c-0.256-1.065-0.384-1.577-0.64-2.472  c-0.079-0.274-0.363-0.435-0.642-0.355c-0.274,0.078-0.434,0.365-0.354,0.641c0.25,0.879,0.376,1.382,0.627,2.429  c0.003,0.013,0.01,0.024,0.013,0.037l-1.706,2.799c0,0,0.186-3.048,0.26-4.494c0.305-1.117,0.006-1.669-0.412-2.407  c-0.078-0.139-0.164-0.291-0.255-0.462c-0.219-0.412-0.314-0.837-0.417-1.288c-0.013-0.056-0.028-0.115-0.041-0.173  c0.252,0.029,0.608,0.121,1.078,0.376c1.013,0.549,1.562,0.851,2.027,0.615s1.015-0.869,1.732-1.545s1.351-1.267,1.689-0.591  c0.338,0.676,0.085,1.773,0.211,2.407c0.127,0.634-0.041,0.634,0.93,0.634s1.605-0.5,1.985-0.905  c0.379-0.404,1.097-1.587,1.309-1.418s0.719,1.521,1.141,1.647c0.15,0.045,0.344,0.028,0.529-0.012  C87.101,26.98,87.106,27.13,87.084,27.199z M62.585,28.945c1.395-0.531,3.106-2.577,3.414-2.956  c0.396,0.932,0.797,2.151,0.959,2.687c0.083,0.273,0.373,0.429,0.646,0.347c0.274-0.083,0.43-0.372,0.347-0.646  c-0.036-0.117-0.873-2.871-1.555-3.896c-0.22-0.328-0.525-0.73-0.847-1.151c-0.569-0.745-1.275-1.672-1.431-2.175  c-0.254-0.827-0.495-1.607-1.746-1.697c-0.77-0.056-5.779-0.149-7.342,0.206c-1.429,0.325-3.328,0.782-4.271,1.119  c-0.998,0.355-1.567,1.295-2.07,2.123l-0.141,0.23c-0.262,0.426-0.385,0.807-0.493,1.143c-0.157,0.487-0.271,0.84-0.763,1.263  c-0.18,0.154-0.434,0.19-0.544,0.17c-0.033-0.137,0.004-0.27,0.358-0.876c0.083-0.143,0.173-0.284,0.26-0.417  c0.344-0.538,0.643-1.002,0.382-1.438c-0.157-0.263-0.449-0.378-0.871-0.348c-0.677,0.052-1.393,0.689-2.086,1.306  c-0.344,0.306-0.734,0.652-0.949,0.751c-0.709,0.322-1.158,0.47-1.346,0.458c0.008-0.189-0.013-0.422-0.169-0.769  c0.083-0.043,0.16-0.109,0.219-0.212c0.1-0.172,0.073-0.457-0.037-0.622c-0.237-0.352-0.576-0.396-0.758-0.421  c-0.04-0.005-0.101-0.013-0.115-0.02c-0.001,0-0.072-0.062-0.145-0.347l-0.083-0.323c-0.056-0.215-0.091-0.324-0.064-0.437  c0.037-0.077,0.084-0.177,0.143-0.321c0.218-0.545-0.044-0.937-0.221-1.156c0.219-0.206,0.331-0.386,0.423-0.535  c0.09-0.144,0.144-0.23,0.3-0.349c0.221-0.166,0.581-0.344,0.885-0.366c0.378-0.029,0.64-0.082,0.929-0.142  c0.21-0.043,0.437-0.089,0.75-0.13c0.174-0.023,0.214-0.019,0.532,0.008c0.161,0.014,0.379,0.032,0.699,0.053  c0.477,0.03,0.993-0.043,1.49-0.115c0.583-0.086,1.187-0.174,1.686-0.08c0.89,0.168,1.646-0.214,2.601-0.698  c0.387-0.196,0.82-0.416,1.323-0.629c1.629-0.688,3.803-1.267,5.964-1.584c1.142-0.168,2.011-0.403,2.71-0.593  c0.639-0.172,1.143-0.309,1.556-0.309c0.371,0,0.484,0.118,0.86,0.57c0.212,0.256,0.476,0.574,0.872,0.921  c1.055,0.923,3.6,2.944,4.111,3.328c0.423,0.318,1.65,2.16,1.757,2.514c0.112,0.394,0.449,0.606,0.84,0.853  c0.377,0.238,0.846,0.534,1.254,1.069c0.413,0.54,0.54,1.098,0.674,1.688c0.113,0.497,0.229,1.011,0.512,1.543  c0.096,0.181,0.186,0.341,0.269,0.487c0.323,0.572,0.462,0.853,0.373,1.362c-0.175,0.502-0.626,1.837-0.771,2.725  c-0.146,0.889-1.293,1.775-2.308,2.516c-1.013,0.74-1.839,0.864-3.571,1.118c-1.732,0.253-2.85-0.146-3.905-1.033  c-1.056-0.888-1.816-2.45-2.238-3.507c-0.245-0.611-0.306-1.306-0.315-1.788C61.821,29.254,62.125,29.121,62.585,28.945z   M37.604,59.069c-1.225,0.712-2.191,1.273-3.031,1.553c-1.032,0.344-1.311,0.572-1.713,0.945l-0.213,0.193  c-0.459,0.401-1.22,0.745-2.036,0.919c-1.117,0.24-2.317,0.89-3.776,2.045c-0.917,0.725-1.906,1.385-2.862,2.022  c-0.647,0.432-1.275,0.85-1.85,1.269c-1.152,0.838-3.517,2.267-4.931,3.12l-0.801,0.484c-1.222,0.746-3.399,2.793-4.53,4.123  c-0.264,0.312-0.458,0.618-0.626,0.922c-0.39-0.483-0.989-1.283-1.184-1.868c-0.212-0.637-0.228-2.125-0.22-2.915  c0.397-0.009,0.695-0.138,1.416-0.618c1.436-0.958,3.205-2.544,4.509-4.044c0.546-0.628,1.094-1.15,1.623-1.655  c0.703-0.672,1.367-1.306,1.909-2.08c0.805-1.15,1.711-2.114,3.513-3.08c0.829-0.444,1.616-0.782,2.376-1.11  c0.87-0.375,1.769-0.763,2.691-1.295c1.734-1,3.046-2.291,4.011-3.944c0.412-0.707,0.847-1.304,1.293-1.833  c0.162,0.452,0.415,1.108,0.746,1.795c0.591,1.225,1.943,1.647,3.252,2.492c0.846,0.546,1.417,1.33,1.718,1.82  c-0.001,0.001-0.002,0.001-0.003,0.002C38.425,58.593,38,58.839,37.604,59.069z M66.951,62.017c0.384,1.535-0.087,1.928-0.801,2.521  c-0.476,0.397-1.038,0.576-1.968,0.875c-0.396,0.127-0.849,0.271-1.378,0.461c-1.941,0.691-4.312,1.303-6.186,1.595  c-1.671,0.263-4.104,0.22-5.411,0.198c-0.278-0.006-0.504-0.01-0.663-0.01c-1.067,0-3.316,0.528-4.483,0.862  c-0.882,0.252-1.278,0.425-1.507,0.736c-0.323-0.127-0.753-0.266-1.132-0.287c-0.718-0.042-1.943-1.184-2.154-2.113  c-0.12-0.526-0.049-0.86,0.034-1.064c0.134,0.014,0.269,0.027,0.386,0.04c0.369,0.042,0.705,0.077,0.954,0.077  c1.062,0,6.288-1.958,6.339-1.979c0.554-0.21,1.355-0.55,2.284-0.944c1.329-0.563,2.983-1.265,4.516-1.84  c2.32-0.87,4.042-0.061,4.123-0.021c0.254,0.127,0.565,0.023,0.693-0.232c0.128-0.257,0.024-0.567-0.231-0.695  c-0.068-0.034-1.35-0.645-3.211-0.434c-0.017-0.015-0.025-0.031-0.044-0.044c-0.03-0.021-0.475-0.311-1.113-0.675  c1.065-0.408,3.193-1.213,4.154-1.522c0.997-0.322,2.991-1.412,3.886-1.914c0.037,0.062,0.081,0.127,0.115,0.187  C64.922,57.157,66.499,60.209,66.951,62.017z M93.541,30.5c-0.348,0.409-0.557,0.656-0.512,0.98  c0.009,0.058,0.028,0.118,0.059,0.175c-0.032,0.32-0.353,1.3-0.782,1.872c-0.489,0.652-1.332,1.298-2.075,1.867l-0.223,0.171  c-1.022,0.787-1.64,2.092-2.108,3.264c-0.104,0.257-0.221,0.564-0.351,0.901c-0.51,1.329-1.207,3.148-1.795,3.98  c-0.261,0.369-0.528,0.76-0.797,1.151c-0.518,0.757-1.056,1.54-1.52,2.132c-0.511,0.65-0.879,0.65-1.477,0.646l-0.124-0.001  c-0.371-0.011-1.712-1.076-1.947-1.488l-0.097-0.171c-0.395-0.703-1.446-2.57-2.362-3.608c-0.704-0.799-1.731-3.053-2.16-4.066  c0.721-0.448,1.291-0.953,1.68-1.515c0.033-0.049,0.059-0.103,0.074-0.16c0.014-0.051,0.339-1.269,0.405-2.637  c0.029-0.598,0.097-0.915,0.133-1.069c0.356,0.614,0.817,1.116,1.357,1.401c0.162,0.085,0.325,0.132,0.487,0.161  c-0.086,0.637-0.228,2.06,0.146,2.526c0.057,0.071,0.146,0.167,0.258,0.286c0.403,0.43,1.078,1.149,1.407,2.088  c0.138,0.396,0.239,0.748,0.325,1.045c0.23,0.805,0.414,1.44,1.071,1.44c0.414,0,0.649-0.188,0.923-0.405  c0.158-0.126,0.374-0.298,0.718-0.52c0.669-0.43,1.151-1.407,1.617-2.353c0.271-0.553,0.529-1.074,0.778-1.391  c0.852-1.086,1.401-2.257,1.469-3.131c0.023-0.299,0.19-0.602,0.383-0.95c0.237-0.433,0.508-0.923,0.587-1.553  c0.049-0.385,0.35-0.662,0.7-0.983c0.354-0.324,0.719-0.659,0.844-1.158c0.099-0.397,0.298-0.783,1.109-0.945  c-0.042,0.257-0.14,0.961,0.529,1.128c0.217,0.056,0.428,0.02,0.595-0.101c0.263-0.188,0.313-0.492,0.338-0.758  c0.037,0.179,0.071,0.407,0.105,0.63c0.064,0.416,0.214,0.695,0.461,0.841C93.69,30.324,93.603,30.427,93.541,30.5z"></path></g><g id="SvgjsG3753" featurekey="nameRightFeature-0" transform="matrix(2.6549060121252035,0,0,2.6549060121252035,216.0159230066949,-2.0989709661712865)" fill="#76c047"><path d="M14.135410169491525 6.441000000000001 c0.18661 0 0.33898 0.15254 0.33898 0.32203 l0 1.6949 c0 0.18644 -0.13559 0.32203 -0.33898 0.32203 l-6.0678 0 l0 3.4068 l3.2203 0 c0.18644 0 0.33898 0.15254 0.33898 0.33915 l0 1.6778 c0 0.20339 -0.13559 0.3222 -0.33898 0.3222 l-3.2203 0 l0 5.1356 c0 0.20339 -0.11864 0.33881 -0.30508 0.33881 l-1.2881 0 c-0.52542 0 -0.83051 -0.37288 -0.83051 -0.86441 l0 -12.373 c0 -0.16949 0.13559 -0.32203 0.32203 -0.32203 l8.1695 0 z M18.338850847457625 6.441000000000001 l-1.6778 0 c-0.18644 0 -0.32203 0.15254 -0.32203 0.32203 l0 12.898 c0 0.18644 0.15254 0.33881 0.33898 0.33881 l1.678 0 c0.16933 0 0.32186 -0.16933 0.32186 -0.33881 l0 -12.898 c0 -0.16949 -0.16949 -0.32203 -0.33898 -0.32203 z M31.202898305084744 6.441000000000001 c0.16949 0 0.32203 0.13592 0.32203 0.32237 l0 1.6949 c0 0.16933 -0.15254 0.32186 -0.32203 0.32186 l-3.8305 0 l0 10.881 c0 0.20339 -0.13559 0.33881 -0.32203 0.33881 l-1.2542 0 c-0.54237 0 -0.84746 -0.37288 -0.84746 -0.86441 l0 -10.356 l-3.8136 0 c-0.16949 0 -0.33898 -0.13559 -0.33898 -0.32203 l0 -1.678 c0 -0.18644 0.15254 -0.33898 0.33898 -0.33898 l10.068 0 z"></path></g></svg>